<?xml version="1.0" standalone="no"?>
<!DOCTYPE svg PUBLIC "-//W3C//DTD SVG 20010904//EN"
 "http://www.w3.org/TR/2001/REC-SVG-20010904/DTD/svg10.dtd">
<svg version="1.0" xmlns="http://www.w3.org/2000/svg"
 width="500.000000pt" height="500.000000pt" viewBox="0 0 500.000000 500.000000"
 preserveAspectRatio="xMidYMid meet">
<metadata>
Created by potrace 1.14, written by Peter Selinger 2001-2017
</metadata>
<g transform="translate(0.000000,500.000000) scale(0.100000,-0.100000)"
fill="#000000" stroke="none">
<path d="M1605 3650 c-226 -36 -406 -157 -513 -347 -41 -73 -86 -214 -103
-318 -20 -128 -15 -361 11 -485 49 -240 170 -435 255 -414 29 7 61 -9 103 -53
35 -37 59 -38 95 -4 17 17 17 21 -8 106 -44 154 -58 299 -52 580 3 176 9 275
21 335 60 303 174 443 383 469 86 10 173 0 239 -28 42 -18 56 -31 77 -69 65
-122 97 -296 104 -577 8 -309 -21 -549 -82 -683 -14 -30 -24 -57 -21 -59 2 -2
22 2 44 9 37 11 42 16 48 53 9 53 40 135 62 160 47 56 110 71 153 36 23 -18
24 -26 26 -144 2 -89 -2 -138 -12 -166 -8 -23 -11 -41 -6 -41 13 0 66 80 105
158 100 199 131 527 72 775 l-13 57 28 0 c37 0 79 -17 107 -42 33 -31 28 -38
-28 -38 -27 0 -50 -4 -50 -10 0 -5 18 -10 39 -10 77 0 71 38 71 -451 0 -241 2
-439 5 -439 16 0 95 37 122 56 49 37 75 44 108 29 17 -7 45 -10 63 -7 24 3 41
-1 63 -17 39 -29 47 -20 26 24 -21 43 -21 64 -2 89 12 16 15 71 15 315 0 276
1 298 20 328 25 42 70 64 142 70 111 11 57 23 -97 23 -87 0 -155 4 -155 9 0
14 59 60 83 66 12 3 44 6 71 7 29 2 51 8 54 16 3 9 -71 12 -346 12 l-349 0
-22 58 c-42 110 -99 189 -229 321 -113 114 -136 133 -212 169 -47 23 -114 48
-150 57 -80 19 -284 27 -365 15z m315 -49 c30 -12 67 -32 82 -44 l27 -22 -172
0 c-134 0 -186 -4 -235 -18 -72 -20 -151 -55 -201 -88 l-33 -22 16 32 c43 82
127 148 226 176 76 21 217 14 290 -14z"/>
<path d="M3720 3015 c0 -12 14 -15 65 -15 86 0 155 -34 155 -76 0 -2 -25 -4
-55 -4 -30 0 -55 -4 -55 -10 0 -5 22 -10 49 -10 88 0 81 36 81 -396 0 -337 2
-383 15 -378 13 5 15 57 15 381 l0 375 23 -14 c12 -8 30 -30 39 -49 16 -30 18
-69 18 -356 0 -204 4 -324 10 -328 7 -4 10 104 10 317 0 296 2 327 19 365 25
53 65 75 153 81 127 9 69 22 -98 22 l-166 0 14 23 c24 36 76 57 146 57 48 0
62 3 62 15 0 13 -34 15 -250 15 -216 0 -250 -2 -250 -15z"/>
<path d="M3014 1749 c-16 -17 -38 -35 -49 -39 -21 -8 -65 4 -76 22 -5 7 -24 5
-60 -7 -30 -10 -55 -18 -56 -19 -7 -6 31 -135 53 -178 33 -65 209 -236 284
-277 107 -58 196 -75 380 -76 128 0 180 4 230 18 194 53 317 176 355 354 17
79 19 163 5 163 -5 0 -10 -21 -10 -47 0 -65 -25 -163 -56 -225 -55 -109 -177
-193 -324 -224 -129 -27 -311 -6 -378 44 -21 16 -16 17 101 19 129 2 239 23
314 62 126 64 223 191 247 324 12 63 -17 45 -37 -25 -25 -84 -59 -138 -121
-195 -95 -87 -206 -125 -366 -126 -109 0 -200 22 -235 57 -30 30 -55 142 -55
249 0 82 -1 85 -25 91 -13 3 -40 20 -58 36 l-34 29 -29 -30z"/>
</g>
</svg>
